/* XPM */
static char *_deb7112ad544558d16f192e1d401737x1wpuyZhbeHdAfgc[] = {
/* columns rows colors chars-per-pixel */
"48 50 4 1 ",
"  c #4E0003",
". c #4E0001",
"X c #4E0000",
"o c #4E0002",
/* pixels */
" ........XXXXo        ..........................",
" ........XXXXo        ..........................",
" ........XXXXo        ..........................",
" ........XXXXo        ..........................",
" ........XXXXo        ..........................",
" ........XXXXo        ..........................",
" ........XXXXo        ..........................",
" ........XXXXo        ..........................",
" ........XXXXo        ..........................",
" ........XXXXo        ..........................",
" ........XXXXo        ..........................",
" ........XXXXo        ..........................",
" ........XXXXo        ..........................",
" ........XXXXo        ..........................",
" ........XXXXo        ..........................",
" ........XXXXo        ..........................",
" ........XXXXo        ..........................",
" ........XXXXo        ..........................",
" ........XXXXo        ..........................",
" ........XXXXo        ..........................",
" ........XXXXo        ..........................",
" ........XXXXo        ..........................",
" ........XXXXo        ..........................",
" ........XXXXo        ..........................",
" ........XXXXo        ..........................",
" ........XXXXo        ..........................",
" ........XXXXo        ..........................",
" ........XXXXo        ..........................",
" ........XXXXo        ..........................",
" ........XXXXo        ..........................",
" ........XXXXo        ..........................",
" ........XXXXo        ..........................",
" ........XXXXo        ..........................",
" ........XXXXo        ..........................",
" ........XXXXo        ..........................",
" ........XXXXo        ..........................",
" ........XXXXo        ..........................",
" ........XXXXo        ..........................",
" ........XXXXo        ..........................",
" ........XXXXo        ..........................",
" ........XXXXo        ..........................",
" ........XXXXo        ..........................",
" ........XXXXo        ..........................",
" ........XXXXo        ..........................",
" ........XXXXo        ..........................",
" ........XXXXo        ..........................",
" ........XXXXo        ..........................",
" ........XXXXo        ..........................",
" ........XXXXo        ..........................",
" ........XXXXo        .........................."
};
